<?xml version="1.0" standalone="no"?>
<!DOCTYPE svg PUBLIC "-//W3C//DTD SVG 20010904//EN"
 "http://www.w3.org/TR/2001/REC-SVG-20010904/DTD/svg10.dtd">
<svg version="1.0" xmlns="http://www.w3.org/2000/svg"
 width="361.000000pt" height="361.000000pt" viewBox="0 0 361.000000 361.000000"
 preserveAspectRatio="xMidYMid meet">
<metadata>
Created by potrace 1.11, written by Peter Selinger 2001-2013
</metadata>
<g transform="translate(0.000000,361.000000) scale(0.100000,-0.100000)"
fill="#000000" stroke="none">
<path d="M1535 3529 c-38 -5 -108 -18 -155 -29 -353 -83 -643 -247 -885 -502
-121 -127 -199 -233 -270 -370 -149 -286 -203 -549 -181 -888 4 -74 8 -152 7
-172 0 -22 4 -37 10 -35 6 1 19 -32 30 -73 17 -69 57 -188 82 -250 6 -14 11
-29 11 -35 2 -16 80 -170 89 -173 4 -2 7 -8 7 -13 0 -37 253 -359 282 -359 5
0 40 -27 76 -61 136 -123 365 -259 552 -327 347 -127 753 -145 1100 -51 190
52 380 138 535 242 114 76 172 125 305 257 119 119 165 174 155 189 -3 6 8 31
25 56 52 76 137 254 174 365 44 134 63 228 77 382 14 159 6 276 -37 508 -4 22
-3 23 6 5 8 -16 9 -12 4 15 -9 51 -25 85 -19 40 2 -19 -6 -2 -19 39 -14 40
-22 80 -19 87 5 13 -103 249 -126 276 -6 7 -28 39 -49 70 -32 49 -93 123 -210
257 -17 19 -28 40 -25 47 2 7 -8 19 -25 28 -16 8 -32 22 -35 31 -4 8 -14 15
-22 15 -10 0 -13 5 -9 12 5 7 3 8 -5 3 -15 -9 -63 33 -54 48 3 6 1 7 -6 3 -6
-4 -28 5 -49 22 -208 164 -519 292 -817 337 -110 16 -393 18 -510 4z"/>
<path d="M3491 2335 c1 -19 18 -51 18 -35 0 8 -4 22 -9 30 -5 8 -9 11 -9 5z"/>
<path d="M3541 2154 c0 -11 3 -14 6 -6 3 7 2 16 -1 19 -3 4 -6 -2 -5 -13z"/>
<path d="M3552 2105 c0 -16 2 -22 5 -12 2 9 2 23 0 30 -3 6 -5 -1 -5 -18z"/>
<path d="M3567 1995 c3 -44 7 -82 9 -84 7 -8 3 84 -6 124 -6 29 -7 17 -3 -40z"/>
<path d="M3584 1795 c0 -49 1 -71 3 -48 2 23 2 64 0 90 -2 26 -3 8 -3 -42z"/>
<path d="M3566 1624 c-4 -42 -5 -78 -2 -81 2 -2 7 30 11 72 4 42 5 78 3 81 -3
2 -8 -30 -12 -72z"/>
<path d="M3546 1489 c-4 -23 -5 -44 -2 -46 2 -2 7 14 11 37 4 23 5 43 2 46 -2
3 -7 -14 -11 -37z"/>
<path d="M3526 1404 c-4 -14 -5 -28 -3 -31 3 -2 8 8 11 23 4 14 5 28 3 31 -3
2 -8 -8 -11 -23z"/>
<path d="M3475 1242 c-38 -98 -39 -100 -26 -82 15 21 64 150 59 155 -2 2 -17
-31 -33 -73z"/>
<path d="M3430 1134 c0 -10 -94 -182 -124 -226 -10 -16 -16 -28 -13 -28 15 0
153 247 143 257 -3 4 -6 2 -6 -3z"/>
<path d="M3110 635 c-24 -25 -42 -45 -39 -45 3 0 25 20 49 45 24 25 42 45 39
45 -3 0 -25 -20 -49 -45z"/>
</g>
</svg>
